<svg xmlns="http://www.w3.org/2000/svg" xmlns:xlink="http://www.w3.org/1999/xlink" width="1000" zoomAndPan="magnify" viewBox="0 0 750 749.999995" height="1000" preserveAspectRatio="xMidYMid meet" version="1.0"><path fill="#f5621e" d="M 327.144531 404.175781 C 329.667969 405.957031 331.425781 408.0625 332.765625 410.835938 C 333.816406 413.253906 333.972656 415.332031 333.945312 417.9375 L 333.953125 419.3125 C 333.960938 420.816406 333.953125 422.324219 333.945312 423.828125 C 333.945312 424.914062 333.949219 426 333.953125 427.082031 C 333.960938 430.019531 333.953125 432.957031 333.945312 435.898438 C 333.941406 438.976562 333.941406 442.054688 333.945312 445.136719 C 333.945312 450.308594 333.941406 455.484375 333.929688 460.65625 C 333.917969 465.96875 333.914062 471.28125 333.917969 476.59375 C 333.925781 483.007812 333.921875 489.421875 333.914062 495.832031 C 333.914062 498.277344 333.914062 500.722656 333.914062 503.167969 C 333.917969 506.046875 333.914062 508.929688 333.902344 511.8125 C 333.898438 512.867188 333.898438 513.921875 333.902344 514.976562 C 333.925781 527.011719 333.925781 527.011719 331.492188 531.386719 C 330.816406 532.457031 330.140625 533.457031 329.320312 534.417969 C 327.9375 535.109375 326.824219 534.914062 325.277344 534.875 C 307.273438 534.675781 288.703125 537.285156 272.816406 546.1875 C 270.816406 547.359375 268.914062 548.644531 267.027344 549.992188 L 265.488281 551.085938 C 259.980469 554.777344 259.980469 554.777344 255.835938 559.726562 L 254.859375 559.726562 L 254.859375 560.699219 L 517.175781 560.699219 C 517.136719 513.351562 517.136719 513.351562 517.085938 466 C 517.082031 456.847656 517.082031 456.847656 517.082031 452.5625 C 517.082031 449.570312 517.078125 446.574219 517.070312 443.582031 C 517.066406 440.125 517.0625 436.667969 517.0625 433.214844 C 517.066406 431.449219 517.0625 429.679688 517.058594 427.914062 C 517.054688 426.019531 517.054688 424.125 517.058594 422.230469 L 517.046875 420.570312 C 517.0625 416.628906 517.230469 412.765625 519.183594 409.253906 C 520.628906 407.152344 522.398438 405.472656 524.472656 403.992188 C 527.921875 402.414062 531.863281 402.460938 535.597656 402.46875 L 536.859375 402.464844 C 538.246094 402.460938 539.632812 402.460938 541.019531 402.460938 L 544.011719 402.457031 C 546.71875 402.453125 549.421875 402.449219 552.128906 402.453125 C 553.820312 402.449219 555.511719 402.449219 557.203125 402.449219 C 563.109375 402.445312 569.019531 402.441406 574.925781 402.441406 C 580.421875 402.441406 585.921875 402.4375 591.417969 402.429688 C 596.144531 402.421875 600.875 402.421875 605.601562 402.421875 C 608.421875 402.421875 611.242188 402.417969 614.0625 402.414062 C 616.714844 402.410156 619.371094 402.410156 622.023438 402.414062 C 622.996094 402.414062 623.964844 402.414062 624.9375 402.410156 C 637.222656 402.375 637.222656 402.375 641.699219 404.570312 C 643.777344 405.863281 645.28125 407.304688 646.628906 409.347656 C 648.25 412.554688 648.859375 415.378906 648.816406 418.949219 L 648.824219 420.320312 C 648.832031 421.832031 648.824219 423.34375 648.816406 424.851562 C 648.820312 425.949219 648.824219 427.046875 648.828125 428.144531 C 648.832031 431.152344 648.828125 434.160156 648.820312 437.171875 C 648.816406 440.085938 648.820312 442.996094 648.824219 445.910156 C 648.832031 452.238281 648.832031 458.5625 648.824219 464.886719 C 648.816406 470.421875 648.8125 475.960938 648.816406 481.496094 L 648.816406 487.082031 C 648.820312 501.066406 648.8125 515.050781 648.800781 529.039062 C 648.789062 541.460938 648.785156 553.882812 648.792969 566.304688 L 648.796875 575.847656 L 648.796875 577.035156 C 648.796875 589.277344 648.796875 601.519531 648.789062 613.761719 C 648.785156 619.292969 648.785156 624.824219 648.789062 630.355469 C 648.792969 636.648438 648.789062 642.9375 648.777344 649.226562 C 648.773438 652.4375 648.769531 655.648438 648.773438 658.859375 C 648.777344 661.796875 648.773438 664.734375 648.765625 667.671875 C 648.765625 668.734375 648.765625 669.796875 648.765625 670.863281 C 648.773438 672.308594 648.765625 673.753906 648.757812 675.199219 L 648.769531 676.445312 C 648.742188 679.398438 648.191406 682.042969 647.113281 684.800781 C 645.445312 687.347656 643.335938 689.515625 640.605469 690.914062 C 638.207031 691.863281 636.363281 692.167969 633.8125 692.160156 L 632.695312 692.164062 C 631.449219 692.167969 630.199219 692.167969 628.953125 692.164062 L 626.246094 692.167969 C 623.746094 692.171875 621.246094 692.171875 618.75 692.171875 C 616.039062 692.171875 613.328125 692.171875 610.613281 692.175781 C 605.230469 692.179688 599.84375 692.183594 594.457031 692.183594 C 588.339844 692.183594 582.222656 692.1875 576.105469 692.191406 C 560.1875 692.203125 544.269531 692.207031 528.351562 692.214844 L 512.867188 692.21875 L 507.347656 692.21875 C 482.15625 692.230469 456.96875 692.234375 431.777344 692.238281 L 425.839844 692.242188 L 410.324219 692.242188 C 384.710938 692.246094 359.097656 692.257812 333.480469 692.273438 C 315.078125 692.285156 296.675781 692.296875 278.277344 692.296875 L 277.128906 692.296875 C 265.113281 692.304688 253.09375 692.308594 241.078125 692.304688 C 229.289062 692.304688 217.503906 692.3125 205.71875 692.320312 C 193.847656 692.332031 181.976562 692.335938 170.105469 692.332031 C 162.738281 692.328125 155.371094 692.328125 148.003906 692.339844 C 143.308594 692.347656 138.609375 692.347656 133.914062 692.339844 C 131.234375 692.335938 128.558594 692.335938 125.878906 692.34375 C 123.441406 692.351562 121.003906 692.351562 118.570312 692.34375 C 117.691406 692.339844 116.816406 692.34375 115.941406 692.347656 C 111.507812 692.375 107.484375 692.390625 103.507812 690.152344 C 101.402344 688.859375 100.1875 687.097656 98.800781 685.097656 C 97.050781 681.664062 97.039062 678.175781 97.046875 674.40625 L 97.039062 672.765625 C 97.03125 670.972656 97.035156 669.183594 97.035156 667.394531 L 97.027344 663.609375 C 97.023438 660.957031 97.023438 658.304688 97.027344 655.648438 C 97.03125 652.964844 97.027344 650.277344 97.015625 647.589844 C 96.886719 608.984375 101.414062 572.269531 115.675781 536.183594 L 116.035156 535.261719 C 117.800781 530.789062 119.808594 526.523438 122 522.253906 C 122.335938 521.578125 122.667969 520.902344 122.996094 520.226562 C 134.894531 496.046875 151.957031 471.300781 173.417969 454.535156 C 174.515625 453.667969 175.539062 452.753906 176.570312 451.808594 C 185.230469 444.050781 195.203125 437.582031 205.222656 431.734375 L 206.332031 431.082031 C 238.480469 412.457031 275.445312 404.105469 312.316406 402.683594 L 314.175781 402.597656 C 323.59375 402.242188 323.59375 402.242188 327.144531 404.175781 " fill-opacity="1" fill-rule="nonzero"/><path fill="#f6f4f3" d="M 571.417969 59.269531 C 572.789062 59.269531 574.15625 59.265625 575.527344 59.265625 C 580.332031 59.253906 585.132812 59.25 589.933594 59.25 C 594.382812 59.253906 598.835938 59.242188 603.285156 59.226562 C 607.140625 59.214844 610.996094 59.207031 614.855469 59.210938 C 617.140625 59.210938 619.429688 59.207031 621.71875 59.195312 C 623.859375 59.1875 626 59.1875 628.140625 59.195312 C 628.921875 59.195312 629.703125 59.191406 630.484375 59.1875 C 634.714844 59.15625 638.46875 59.269531 642.246094 61.378906 C 644.394531 62.710938 645.75 64.496094 647.078125 66.605469 C 648.503906 69.597656 648.71875 72.339844 648.707031 75.597656 L 648.714844 76.9375 C 648.722656 78.414062 648.722656 79.886719 648.722656 81.363281 C 648.726562 82.421875 648.730469 83.480469 648.734375 84.539062 C 648.746094 87.414062 648.75 90.289062 648.753906 93.164062 C 648.753906 94.960938 648.757812 96.757812 648.761719 98.558594 C 648.773438 104.835938 648.78125 111.113281 648.78125 117.390625 C 648.78125 123.230469 648.796875 129.074219 648.816406 134.917969 C 648.835938 139.941406 648.84375 144.960938 648.84375 149.984375 C 648.84375 152.980469 648.847656 155.980469 648.863281 158.976562 C 648.875 161.796875 648.875 164.617188 648.867188 167.4375 C 648.867188 168.46875 648.871094 169.5 648.878906 170.535156 C 648.917969 176.074219 648.941406 181.003906 646.140625 185.964844 C 644.378906 188.300781 642.402344 189.730469 639.761719 190.964844 C 637.648438 191.777344 635.773438 191.867188 633.503906 191.875 L 632.472656 191.882812 C 631.328125 191.886719 630.183594 191.890625 629.039062 191.890625 L 626.578125 191.898438 C 624.808594 191.90625 623.042969 191.914062 621.273438 191.917969 C 618.464844 191.925781 615.65625 191.9375 612.847656 191.949219 C 604.863281 191.984375 596.875 192.011719 588.890625 192.039062 C 584.480469 192.050781 580.070312 192.070312 575.660156 192.089844 C 573.332031 192.101562 571.003906 192.109375 568.675781 192.113281 C 547.621094 192.160156 527.578125 193.140625 508.929688 203.941406 C 505.613281 205.917969 502.519531 208.199219 499.65625 210.785156 L 498.824219 211.53125 C 495.4375 214.257812 495.4375 214.257812 492.839844 217.597656 L 493.753906 217.597656 C 514.167969 217.570312 534.582031 217.550781 554.996094 217.542969 C 561.902344 217.539062 568.804688 217.535156 575.710938 217.523438 C 582.796875 217.515625 589.882812 217.507812 596.96875 217.507812 C 601.339844 217.507812 605.710938 217.5 610.085938 217.492188 C 613.082031 217.488281 616.082031 217.488281 619.082031 217.488281 C 620.8125 217.488281 622.539062 217.488281 624.269531 217.484375 C 626.148438 217.476562 628.027344 217.480469 629.902344 217.480469 L 631.546875 217.472656 C 635.105469 217.488281 638.824219 217.5625 642.046875 219.21875 C 644.828125 221.523438 646.832031 223.714844 648.15625 227.117188 C 649.136719 231.03125 648.839844 235.175781 648.820312 239.183594 C 648.820312 240.242188 648.824219 241.300781 648.828125 242.355469 C 648.832031 245.21875 648.828125 248.082031 648.820312 250.941406 C 648.8125 253.941406 648.816406 256.941406 648.816406 259.941406 C 648.820312 264.976562 648.8125 270.015625 648.800781 275.050781 C 648.789062 280.867188 648.789062 286.6875 648.792969 292.503906 C 648.796875 298.105469 648.796875 303.710938 648.789062 309.3125 C 648.785156 311.695312 648.785156 314.078125 648.789062 316.457031 C 648.789062 319.261719 648.785156 322.070312 648.773438 324.875 C 648.773438 325.902344 648.773438 326.929688 648.773438 327.957031 C 648.777344 329.363281 648.773438 330.773438 648.761719 332.179688 L 648.773438 333.398438 C 648.734375 336.941406 647.945312 340.15625 646.261719 343.28125 C 644.40625 345.550781 642.707031 347.132812 639.988281 348.300781 C 638 349.027344 636.136719 349.203125 634.027344 349.183594 L 632.914062 349.1875 C 631.679688 349.195312 630.449219 349.1875 629.214844 349.183594 C 628.320312 349.1875 627.421875 349.1875 626.527344 349.191406 C 624.054688 349.195312 621.582031 349.195312 619.109375 349.191406 C 616.421875 349.1875 613.734375 349.191406 611.046875 349.195312 C 606.335938 349.203125 601.625 349.203125 596.914062 349.199219 C 590.234375 349.195312 583.558594 349.199219 576.878906 349.203125 C 561.851562 349.214844 546.824219 349.214844 531.792969 349.210938 L 530.695312 349.210938 C 521.566406 349.207031 512.4375 349.207031 503.308594 349.214844 L 494.472656 349.214844 C 473.910156 349.222656 453.347656 349.222656 432.78125 349.21875 L 417.457031 349.21875 L 412.722656 349.214844 C 387.753906 349.210938 362.785156 349.214844 337.816406 349.226562 L 318.945312 349.234375 L 317.769531 349.234375 C 305.832031 349.238281 293.894531 349.242188 281.957031 349.242188 L 280.824219 349.242188 C 268.925781 349.242188 257.023438 349.242188 245.117188 349.242188 C 233.449219 349.238281 221.777344 349.242188 210.105469 349.25 C 198.027344 349.257812 185.945312 349.257812 173.867188 349.25 C 166.902344 349.242188 159.933594 349.246094 152.96875 349.253906 C 148.316406 349.257812 143.667969 349.257812 139.015625 349.25 C 136.367188 349.246094 133.714844 349.242188 131.0625 349.25 C 128.652344 349.257812 126.238281 349.253906 123.828125 349.246094 C 122.960938 349.242188 122.089844 349.246094 121.222656 349.25 C 116.816406 349.273438 112.816406 349.28125 108.859375 347.050781 C 106.710938 345.6875 105.027344 344.007812 103.8125 341.761719 C 102.316406 338.214844 101.902344 334.703125 101.921875 330.886719 L 101.914062 329.585938 C 101.910156 328.15625 101.910156 326.730469 101.914062 325.304688 L 101.90625 322.21875 C 101.898438 319.433594 101.898438 316.648438 101.902344 313.863281 C 101.902344 311.535156 101.898438 309.207031 101.898438 306.878906 C 101.890625 301.382812 101.890625 295.890625 101.894531 290.398438 C 101.898438 284.734375 101.890625 279.074219 101.882812 273.414062 C 101.871094 268.546875 101.871094 263.679688 101.871094 258.8125 C 101.871094 255.910156 101.871094 253.003906 101.863281 250.101562 C 101.859375 247.371094 101.859375 244.640625 101.863281 241.90625 C 101.867188 240.90625 101.863281 239.90625 101.859375 238.90625 C 101.820312 228.515625 101.820312 228.515625 104.359375 223.804688 C 106.164062 221.601562 108.011719 219.992188 110.535156 218.664062 C 113.699219 217.609375 116.886719 217.527344 120.195312 217.53125 L 121.375 217.527344 C 122.675781 217.523438 123.976562 217.523438 125.277344 217.523438 L 128.105469 217.515625 C 130.691406 217.507812 133.28125 217.503906 135.867188 217.5 C 138.660156 217.496094 141.453125 217.492188 144.246094 217.484375 C 149.082031 217.472656 153.917969 217.464844 158.753906 217.457031 C 165.746094 217.445312 172.738281 217.433594 179.730469 217.417969 C 191.074219 217.394531 202.421875 217.375 213.765625 217.355469 C 224.785156 217.335938 235.804688 217.316406 246.824219 217.292969 L 247.855469 217.292969 L 258.089844 217.273438 C 286.703125 217.214844 315.3125 217.164062 343.921875 217.113281 L 344.507812 215.425781 C 345.234375 213.332031 345.960938 211.242188 346.691406 209.148438 L 347.632812 206.445312 C 354.527344 186.578125 363.582031 167.765625 375.554688 150.4375 L 376.246094 149.433594 C 388.398438 131.828125 403.085938 115.46875 420.460938 102.871094 C 421.414062 102.175781 422.359375 101.472656 423.304688 100.769531 C 427.988281 97.3125 432.78125 94.15625 437.789062 91.191406 C 438.777344 90.605469 439.757812 90.011719 440.738281 89.410156 C 471.488281 70.621094 507.503906 61.859375 543.226562 59.875 L 544.34375 59.8125 C 553.363281 59.320312 562.382812 59.273438 571.417969 59.269531 " fill-opacity="1" fill-rule="nonzero"/><path fill="#f5621e" d="M 383.496094 402.40625 L 386.488281 402.402344 C 389.1875 402.398438 391.882812 402.398438 394.578125 402.402344 C 397.410156 402.402344 400.238281 402.402344 403.070312 402.402344 C 407.824219 402.398438 412.574219 402.402344 417.328125 402.40625 C 422.8125 402.410156 428.292969 402.410156 433.777344 402.402344 C 438.496094 402.398438 443.214844 402.398438 447.933594 402.402344 C 450.75 402.402344 453.5625 402.402344 456.375 402.398438 C 459.023438 402.398438 461.667969 402.398438 464.316406 402.40625 C 465.28125 402.40625 466.25 402.40625 467.21875 402.402344 C 479.835938 402.378906 479.835938 402.378906 483.4375 404.144531 C 486.414062 405.957031 488.554688 408.347656 490.316406 411.324219 C 491.460938 414.152344 491.453125 416.972656 491.449219 419.976562 L 491.453125 421.269531 C 491.457031 422.699219 491.460938 424.132812 491.460938 425.5625 L 491.464844 428.640625 C 491.472656 431.429688 491.476562 434.214844 491.476562 437.003906 L 491.484375 442.230469 C 491.492188 447.6875 491.496094 453.144531 491.496094 458.601562 C 491.5 464.894531 491.507812 471.183594 491.523438 477.476562 C 491.53125 482.34375 491.539062 487.210938 491.539062 492.082031 C 491.539062 494.988281 491.542969 497.890625 491.550781 500.796875 C 491.558594 503.53125 491.558594 506.265625 491.554688 509 C 491.554688 510 491.558594 511 491.5625 512 C 491.609375 522.433594 491.609375 522.433594 489.921875 526.632812 C 488.199219 529.53125 486.117188 531.511719 483.304688 533.351562 C 480.320312 534.832031 477.574219 535.046875 474.300781 535.03125 L 472.984375 535.039062 C 471.53125 535.042969 470.078125 535.042969 468.628906 535.039062 L 465.496094 535.046875 C 462.664062 535.054688 459.835938 535.054688 457.003906 535.054688 C 454.640625 535.054688 452.277344 535.054688 449.910156 535.058594 C 444.332031 535.0625 438.753906 535.0625 433.175781 535.058594 C 427.421875 535.058594 421.671875 535.0625 415.917969 535.074219 C 410.976562 535.082031 406.035156 535.085938 401.09375 535.082031 C 398.144531 535.082031 395.195312 535.082031 392.246094 535.089844 C 389.46875 535.09375 386.695312 535.09375 383.921875 535.089844 C 382.902344 535.085938 381.886719 535.089844 380.871094 535.09375 C 379.480469 535.097656 378.089844 535.09375 376.699219 535.089844 L 375.488281 535.097656 C 372.082031 535.066406 369.199219 534.234375 366.214844 532.59375 C 364.015625 530.832031 362.210938 528.921875 361.046875 526.328125 C 360.035156 523.457031 359.910156 520.886719 359.910156 517.871094 L 359.902344 516.535156 C 359.898438 515.054688 359.894531 513.570312 359.894531 512.089844 L 359.886719 508.90625 C 359.875 505.417969 359.871094 501.933594 359.867188 498.445312 L 359.859375 494.84375 C 359.847656 488.226562 359.839844 481.609375 359.835938 474.992188 C 359.832031 470.105469 359.820312 465.214844 359.808594 460.328125 C 359.789062 454.644531 359.78125 448.964844 359.777344 443.28125 C 359.777344 440.277344 359.773438 437.269531 359.761719 434.265625 C 359.75 431.4375 359.746094 428.609375 359.75 425.777344 C 359.75 424.742188 359.75 423.707031 359.742188 422.671875 C 359.683594 413.21875 359.683594 413.21875 361.402344 409.710938 C 362.894531 407.285156 364.605469 405.457031 367.109375 404.046875 C 372.03125 401.71875 378.191406 402.394531 383.496094 402.40625 " fill-opacity="1" fill-rule="nonzero"/></svg>